<svg xmlns="http://www.w3.org/2000/svg" viewBox="0 0 100 100">
  <defs>
    <linearGradient id="bg" x1="0" y1="0" x2="1" y2="1">
      <stop offset="0%" stop-color="#111827"/>
      <stop offset="100%" stop-color="#2563eb"/>
    </linearGradient>
    <linearGradient id="s" x1="0" y1="0" x2="1" y2="1">
      <stop offset="0%" stop-color="#ffffff"/>
      <stop offset="100%" stop-color="#dbeafe"/>
    </linearGradient>
  </defs>

  <rect width="100" height="100" rx="22" fill="url(#bg)"/>

  <path
    d="M68 27c-6-7-15-10-25-8-11 2-18 9-18 18 0 10 7 15 20 19l8 3c6 2 8 4 8 8 0 4-4 7-10 7-8 0-14-3-20-9l-10 11c8 9 18 13 30 13 17 0 29-9 29-23 0-11-7-17-21-21l-8-3c-5-2-7-4-7-7 0-3 3-5 8-5 6 0 11 2 16 7z"
    fill="url(#s)"
  />
</svg>
